<svg xmlns="http://www.w3.org/2000/svg" width="760" height="840" viewBox="0 0 760 840" role="img" aria-label="How the exact files and the lossy test builds differ from AMD's FSR 4.1.1 shaders, pass by pass. AMD's shaders: all fourteen passes unchanged, 4.16 ms per frame. Exact files: twelve passes rewritten with the same output (model passes 3 and 6 untouched), 3.05 ms, the image is AMD's byte for byte. Lossy build on a frame that runs the model: nine model passes change the output (weights folded in passes 1, 5, 10 and 12, simpler rounding in those and in 2, 4, 7, 8 and 9), about 2.9 ms. Lossy build on a skipped frame: all twelve model passes are skipped and the prepass and postpass show mostly the reprojected history, with the model's last result following the motion and four repairs, and nothing taken from the new frame where the picture is at rest, 1.19 ms. The two kinds of frame alternate, 2.07 ms on average, 50% less than AMD's. Cost of the lossy build in a test scene at 4K Balanced: still picture 43.60 dB against 44.31, flicker on fine detail at rest 0.109 against 0.110, areas just uncovered by a moving object 34.21 dB against 34.48. Shadow of the Tomb Raider, 4K Balanced, Radeon RX 7800 XT.">
<rect width="760" height="840" rx="8" fill="#fcfcfb"/>
<text x="24.0" y="34.0" font-family="-apple-system, 'Segoe UI', Helvetica, Arial, sans-serif" font-size="16" font-weight="600" text-anchor="start" fill="#0b0b0b">Exact files and lossy builds, pass by pass</text>
<text x="24.0" y="54.0" font-family="-apple-system, 'Segoe UI', Helvetica, Arial, sans-serif" font-size="12" text-anchor="start" fill="#52514e">FSR 4.1.1's passes in the order they run each frame, and what each build does with them.</text>
<rect x="24.0" y="70" width="22.0" height="16" rx="4" fill="#2a78d6"/>
<text x="35.0" y="82.0" font-family="-apple-system, 'Segoe UI', Helvetica, Arial, sans-serif" font-size="12" font-weight="600" text-anchor="middle" fill="#ffffff"></text>
<text x="52.0" y="82.0" font-family="-apple-system, 'Segoe UI', Helvetica, Arial, sans-serif" font-size="12" text-anchor="start" fill="#52514e">rewritten, same output</text>
<rect x="202.0" y="70" width="22.0" height="16" rx="4" fill="#eb6834"/>
<text x="213.0" y="82.0" font-family="-apple-system, 'Segoe UI', Helvetica, Arial, sans-serif" font-size="12" font-weight="600" text-anchor="middle" fill="#0b0b0b"></text>
<path d="M214.0,70 H220.0 Q224.0,70 224.0,74 V80 Z" fill="#0b0b0b"/>
<text x="230.0" y="82.0" font-family="-apple-system, 'Segoe UI', Helvetica, Arial, sans-serif" font-size="12" text-anchor="start" fill="#52514e">changes the output</text>
<rect x="362.0" y="70" width="22.0" height="16" rx="4" fill="#fcfcfb" stroke="#898781" stroke-width="1" stroke-dasharray="3 3"/>
<line x1="367" y1="82" x2="379" y2="74" stroke="#898781" stroke-width="1"/>
<text x="390.0" y="82.0" font-family="-apple-system, 'Segoe UI', Helvetica, Arial, sans-serif" font-size="12" text-anchor="start" fill="#52514e">skipped</text>
<rect x="464.0" y="70" width="22.0" height="16" rx="4" fill="#fcfcfb" stroke="#c3c2b7" stroke-width="1"/>
<text x="475.0" y="82.0" font-family="-apple-system, 'Segoe UI', Helvetica, Arial, sans-serif" font-size="12" text-anchor="middle" fill="#52514e"></text>
<text x="492.0" y="82.0" font-family="-apple-system, 'Segoe UI', Helvetica, Arial, sans-serif" font-size="12" text-anchor="start" fill="#52514e">AMD's code</text>
<text x="24.0" y="120.0" font-family="-apple-system, 'Segoe UI', Helvetica, Arial, sans-serif" font-size="14" font-weight="600" text-anchor="start" fill="#0b0b0b">AMD's shaders</text>
<text x="130.8" y="120.0" font-family="-apple-system, 'Segoe UI', Helvetica, Arial, sans-serif" font-size="12" text-anchor="start" fill="#52514e">every frame</text>
<text x="736.0" y="120.0" font-family="-apple-system, 'Segoe UI', Helvetica, Arial, sans-serif" font-size="14" font-weight="600" text-anchor="end" fill="#0b0b0b">4.16 ms</text>
<rect x="24.0" y="148" width="84.0" height="30" rx="4" fill="#fcfcfb" stroke="#c3c2b7" stroke-width="1"/>
<text x="66.0" y="167.0" font-family="-apple-system, 'Segoe UI', Helvetica, Arial, sans-serif" font-size="12" text-anchor="middle" fill="#52514e">Prepass</text>
<rect x="114.0" y="148" width="38.8" height="30" rx="4" fill="#fcfcfb" stroke="#c3c2b7" stroke-width="1"/>
<text x="133.4" y="167.0" font-family="-apple-system, 'Segoe UI', Helvetica, Arial, sans-serif" font-size="12" text-anchor="middle" fill="#52514e">1</text>
<rect x="158.8" y="148" width="38.8" height="30" rx="4" fill="#fcfcfb" stroke="#c3c2b7" stroke-width="1"/>
<text x="178.2" y="167.0" font-family="-apple-system, 'Segoe UI', Helvetica, Arial, sans-serif" font-size="12" text-anchor="middle" fill="#52514e">2</text>
<rect x="203.7" y="148" width="38.8" height="30" rx="4" fill="#fcfcfb" stroke="#c3c2b7" stroke-width="1"/>
<text x="223.1" y="167.0" font-family="-apple-system, 'Segoe UI', Helvetica, Arial, sans-serif" font-size="12" text-anchor="middle" fill="#52514e">3</text>
<rect x="248.5" y="148" width="38.8" height="30" rx="4" fill="#fcfcfb" stroke="#c3c2b7" stroke-width="1"/>
<text x="267.9" y="167.0" font-family="-apple-system, 'Segoe UI', Helvetica, Arial, sans-serif" font-size="12" text-anchor="middle" fill="#52514e">4</text>
<rect x="293.3" y="148" width="38.8" height="30" rx="4" fill="#fcfcfb" stroke="#c3c2b7" stroke-width="1"/>
<text x="312.8" y="167.0" font-family="-apple-system, 'Segoe UI', Helvetica, Arial, sans-serif" font-size="12" text-anchor="middle" fill="#52514e">5</text>
<rect x="338.2" y="148" width="38.8" height="30" rx="4" fill="#fcfcfb" stroke="#c3c2b7" stroke-width="1"/>
<text x="357.6" y="167.0" font-family="-apple-system, 'Segoe UI', Helvetica, Arial, sans-serif" font-size="12" text-anchor="middle" fill="#52514e">6</text>
<rect x="383.0" y="148" width="38.8" height="30" rx="4" fill="#fcfcfb" stroke="#c3c2b7" stroke-width="1"/>
<text x="402.4" y="167.0" font-family="-apple-system, 'Segoe UI', Helvetica, Arial, sans-serif" font-size="12" text-anchor="middle" fill="#52514e">7</text>
<rect x="427.8" y="148" width="38.8" height="30" rx="4" fill="#fcfcfb" stroke="#c3c2b7" stroke-width="1"/>
<text x="447.2" y="167.0" font-family="-apple-system, 'Segoe UI', Helvetica, Arial, sans-serif" font-size="12" text-anchor="middle" fill="#52514e">8</text>
<rect x="472.7" y="148" width="38.8" height="30" rx="4" fill="#fcfcfb" stroke="#c3c2b7" stroke-width="1"/>
<text x="492.1" y="167.0" font-family="-apple-system, 'Segoe UI', Helvetica, Arial, sans-serif" font-size="12" text-anchor="middle" fill="#52514e">9</text>
<rect x="517.5" y="148" width="38.8" height="30" rx="4" fill="#fcfcfb" stroke="#c3c2b7" stroke-width="1"/>
<text x="536.9" y="167.0" font-family="-apple-system, 'Segoe UI', Helvetica, Arial, sans-serif" font-size="12" text-anchor="middle" fill="#52514e">10</text>
<rect x="562.3" y="148" width="38.8" height="30" rx="4" fill="#fcfcfb" stroke="#c3c2b7" stroke-width="1"/>
<text x="581.8" y="167.0" font-family="-apple-system, 'Segoe UI', Helvetica, Arial, sans-serif" font-size="12" text-anchor="middle" fill="#52514e">11</text>
<rect x="607.2" y="148" width="38.8" height="30" rx="4" fill="#fcfcfb" stroke="#c3c2b7" stroke-width="1"/>
<text x="626.6" y="167.0" font-family="-apple-system, 'Segoe UI', Helvetica, Arial, sans-serif" font-size="12" text-anchor="middle" fill="#52514e">12</text>
<rect x="652.0" y="148" width="84.0" height="30" rx="4" fill="#fcfcfb" stroke="#c3c2b7" stroke-width="1"/>
<text x="694.0" y="167.0" font-family="-apple-system, 'Segoe UI', Helvetica, Arial, sans-serif" font-size="12" text-anchor="middle" fill="#52514e">Postpass</text>
<text x="380.0" y="142.0" font-family="-apple-system, 'Segoe UI', Helvetica, Arial, sans-serif" font-size="11" text-anchor="middle" fill="#898781">the model: 12 passes, about 60% of the time</text>
<rect x="24" y="186" width="712" height="8" rx="4" fill="#e1e0d9"/>
<path d="M24,186 H732.0 Q736.0,186 736.0,190 V190 Q736.0,194 732.0,194 H24 Z" fill="#c3c2b7"/>
<text x="24.0" y="212.0" font-family="-apple-system, 'Segoe UI', Helvetica, Arial, sans-serif" font-size="12" text-anchor="start" fill="#52514e">The reference: all fourteen passes as AMD ships them.</text>
<line x1="24" y1="236" x2="736" y2="236" stroke="#e1e0d9" stroke-width="1"/>
<text x="24.0" y="258.0" font-family="-apple-system, 'Segoe UI', Helvetica, Arial, sans-serif" font-size="14" font-weight="600" text-anchor="start" fill="#0b0b0b">Exact files</text>
<text x="115.6" y="258.0" font-family="-apple-system, 'Segoe UI', Helvetica, Arial, sans-serif" font-size="12" text-anchor="start" fill="#52514e">every frame</text>
<text x="736.0" y="258.0" font-family="-apple-system, 'Segoe UI', Helvetica, Arial, sans-serif" font-size="14" font-weight="600" text-anchor="end" fill="#0b0b0b">3.05 ms</text>
<rect x="24.0" y="270" width="84.0" height="30" rx="4" fill="#2a78d6"/>
<text x="66.0" y="289.0" font-family="-apple-system, 'Segoe UI', Helvetica, Arial, sans-serif" font-size="12" font-weight="600" text-anchor="middle" fill="#ffffff">Prepass</text>
<rect x="114.0" y="270" width="38.8" height="30" rx="4" fill="#2a78d6"/>
<text x="133.4" y="289.0" font-family="-apple-system, 'Segoe UI', Helvetica, Arial, sans-serif" font-size="12" font-weight="600" text-anchor="middle" fill="#ffffff">1</text>
<rect x="158.8" y="270" width="38.8" height="30" rx="4" fill="#2a78d6"/>
<text x="178.2" y="289.0" font-family="-apple-system, 'Segoe UI', Helvetica, Arial, sans-serif" font-size="12" font-weight="600" text-anchor="middle" fill="#ffffff">2</text>
<rect x="203.7" y="270" width="38.8" height="30" rx="4" fill="#fcfcfb" stroke="#c3c2b7" stroke-width="1"/>
<text x="223.1" y="289.0" font-family="-apple-system, 'Segoe UI', Helvetica, Arial, sans-serif" font-size="12" text-anchor="middle" fill="#52514e">3</text>
<rect x="248.5" y="270" width="38.8" height="30" rx="4" fill="#2a78d6"/>
<text x="267.9" y="289.0" font-family="-apple-system, 'Segoe UI', Helvetica, Arial, sans-serif" font-size="12" font-weight="600" text-anchor="middle" fill="#ffffff">4</text>
<rect x="293.3" y="270" width="38.8" height="30" rx="4" fill="#2a78d6"/>
<text x="312.8" y="289.0" font-family="-apple-system, 'Segoe UI', Helvetica, Arial, sans-serif" font-size="12" font-weight="600" text-anchor="middle" fill="#ffffff">5</text>
<rect x="338.2" y="270" width="38.8" height="30" rx="4" fill="#fcfcfb" stroke="#c3c2b7" stroke-width="1"/>
<text x="357.6" y="289.0" font-family="-apple-system, 'Segoe UI', Helvetica, Arial, sans-serif" font-size="12" text-anchor="middle" fill="#52514e">6</text>
<rect x="383.0" y="270" width="38.8" height="30" rx="4" fill="#2a78d6"/>
<text x="402.4" y="289.0" font-family="-apple-system, 'Segoe UI', Helvetica, Arial, sans-serif" font-size="12" font-weight="600" text-anchor="middle" fill="#ffffff">7</text>
<rect x="427.8" y="270" width="38.8" height="30" rx="4" fill="#2a78d6"/>
<text x="447.2" y="289.0" font-family="-apple-system, 'Segoe UI', Helvetica, Arial, sans-serif" font-size="12" font-weight="600" text-anchor="middle" fill="#ffffff">8</text>
<rect x="472.7" y="270" width="38.8" height="30" rx="4" fill="#2a78d6"/>
<text x="492.1" y="289.0" font-family="-apple-system, 'Segoe UI', Helvetica, Arial, sans-serif" font-size="12" font-weight="600" text-anchor="middle" fill="#ffffff">9</text>
<rect x="517.5" y="270" width="38.8" height="30" rx="4" fill="#2a78d6"/>
<text x="536.9" y="289.0" font-family="-apple-system, 'Segoe UI', Helvetica, Arial, sans-serif" font-size="12" font-weight="600" text-anchor="middle" fill="#ffffff">10</text>
<rect x="562.3" y="270" width="38.8" height="30" rx="4" fill="#2a78d6"/>
<text x="581.8" y="289.0" font-family="-apple-system, 'Segoe UI', Helvetica, Arial, sans-serif" font-size="12" font-weight="600" text-anchor="middle" fill="#ffffff">11</text>
<rect x="607.2" y="270" width="38.8" height="30" rx="4" fill="#2a78d6"/>
<text x="626.6" y="289.0" font-family="-apple-system, 'Segoe UI', Helvetica, Arial, sans-serif" font-size="12" font-weight="600" text-anchor="middle" fill="#ffffff">12</text>
<rect x="652.0" y="270" width="84.0" height="30" rx="4" fill="#2a78d6"/>
<text x="694.0" y="289.0" font-family="-apple-system, 'Segoe UI', Helvetica, Arial, sans-serif" font-size="12" font-weight="600" text-anchor="middle" fill="#ffffff">Postpass</text>
<rect x="24" y="308" width="712" height="8" rx="4" fill="#e1e0d9"/>
<path d="M24,308 H542.0 Q546.0,308 546.0,312 V312 Q546.0,316 542.0,316 H24 Z" fill="#2a78d6"/>
<text x="24.0" y="334.0" font-family="-apple-system, 'Segoe UI', Helvetica, Arial, sans-serif" font-size="12" text-anchor="start" fill="#52514e">Twelve passes do the same arithmetic, laid out so the GPU gets through it faster. The image is AMD's, byte for byte.</text>
<line x1="24" y1="358" x2="736" y2="358" stroke="#e1e0d9" stroke-width="1"/>
<text x="24.0" y="380.0" font-family="-apple-system, 'Segoe UI', Helvetica, Arial, sans-serif" font-size="14" font-weight="600" text-anchor="start" fill="#0b0b0b">Lossy build</text>
<text x="115.6" y="380.0" font-family="-apple-system, 'Segoe UI', Helvetica, Arial, sans-serif" font-size="12" text-anchor="start" fill="#52514e">a frame that runs the model (every other frame)</text>
<text x="736.0" y="380.0" font-family="-apple-system, 'Segoe UI', Helvetica, Arial, sans-serif" font-size="14" font-weight="600" text-anchor="end" fill="#0b0b0b">about 2.9 ms</text>
<rect x="24.0" y="392" width="84.0" height="30" rx="4" fill="#2a78d6"/>
<text x="66.0" y="411.0" font-family="-apple-system, 'Segoe UI', Helvetica, Arial, sans-serif" font-size="12" font-weight="600" text-anchor="middle" fill="#ffffff">Prepass</text>
<rect x="114.0" y="392" width="38.8" height="30" rx="4" fill="#eb6834"/>
<text x="133.4" y="411.0" font-family="-apple-system, 'Segoe UI', Helvetica, Arial, sans-serif" font-size="12" font-weight="600" text-anchor="middle" fill="#0b0b0b">1</text>
<path d="M142.8,392 H148.8 Q152.8,392 152.8,396 V402 Z" fill="#0b0b0b"/>
<rect x="158.8" y="392" width="38.8" height="30" rx="4" fill="#eb6834"/>
<text x="178.2" y="411.0" font-family="-apple-system, 'Segoe UI', Helvetica, Arial, sans-serif" font-size="12" font-weight="600" text-anchor="middle" fill="#0b0b0b">2</text>
<path d="M187.7,392 H193.7 Q197.7,392 197.7,396 V402 Z" fill="#0b0b0b"/>
<rect x="203.7" y="392" width="38.8" height="30" rx="4" fill="#fcfcfb" stroke="#c3c2b7" stroke-width="1"/>
<text x="223.1" y="411.0" font-family="-apple-system, 'Segoe UI', Helvetica, Arial, sans-serif" font-size="12" text-anchor="middle" fill="#52514e">3</text>
<rect x="248.5" y="392" width="38.8" height="30" rx="4" fill="#eb6834"/>
<text x="267.9" y="411.0" font-family="-apple-system, 'Segoe UI', Helvetica, Arial, sans-serif" font-size="12" font-weight="600" text-anchor="middle" fill="#0b0b0b">4</text>
<path d="M277.3,392 H283.3 Q287.3,392 287.3,396 V402 Z" fill="#0b0b0b"/>
<rect x="293.3" y="392" width="38.8" height="30" rx="4" fill="#eb6834"/>
<text x="312.8" y="411.0" font-family="-apple-system, 'Segoe UI', Helvetica, Arial, sans-serif" font-size="12" font-weight="600" text-anchor="middle" fill="#0b0b0b">5</text>
<path d="M322.2,392 H328.2 Q332.2,392 332.2,396 V402 Z" fill="#0b0b0b"/>
<rect x="338.2" y="392" width="38.8" height="30" rx="4" fill="#fcfcfb" stroke="#c3c2b7" stroke-width="1"/>
<text x="357.6" y="411.0" font-family="-apple-system, 'Segoe UI', Helvetica, Arial, sans-serif" font-size="12" text-anchor="middle" fill="#52514e">6</text>
<rect x="383.0" y="392" width="38.8" height="30" rx="4" fill="#eb6834"/>
<text x="402.4" y="411.0" font-family="-apple-system, 'Segoe UI', Helvetica, Arial, sans-serif" font-size="12" font-weight="600" text-anchor="middle" fill="#0b0b0b">7</text>
<path d="M411.8,392 H417.8 Q421.8,392 421.8,396 V402 Z" fill="#0b0b0b"/>
<rect x="427.8" y="392" width="38.8" height="30" rx="4" fill="#eb6834"/>
<text x="447.2" y="411.0" font-family="-apple-system, 'Segoe UI', Helvetica, Arial, sans-serif" font-size="12" font-weight="600" text-anchor="middle" fill="#0b0b0b">8</text>
<path d="M456.7,392 H462.7 Q466.7,392 466.7,396 V402 Z" fill="#0b0b0b"/>
<rect x="472.7" y="392" width="38.8" height="30" rx="4" fill="#eb6834"/>
<text x="492.1" y="411.0" font-family="-apple-system, 'Segoe UI', Helvetica, Arial, sans-serif" font-size="12" font-weight="600" text-anchor="middle" fill="#0b0b0b">9</text>
<path d="M501.5,392 H507.5 Q511.5,392 511.5,396 V402 Z" fill="#0b0b0b"/>
<rect x="517.5" y="392" width="38.8" height="30" rx="4" fill="#eb6834"/>
<text x="536.9" y="411.0" font-family="-apple-system, 'Segoe UI', Helvetica, Arial, sans-serif" font-size="12" font-weight="600" text-anchor="middle" fill="#0b0b0b">10</text>
<path d="M546.3,392 H552.3 Q556.3,392 556.3,396 V402 Z" fill="#0b0b0b"/>
<rect x="562.3" y="392" width="38.8" height="30" rx="4" fill="#2a78d6"/>
<text x="581.8" y="411.0" font-family="-apple-system, 'Segoe UI', Helvetica, Arial, sans-serif" font-size="12" font-weight="600" text-anchor="middle" fill="#ffffff">11</text>
<rect x="607.2" y="392" width="38.8" height="30" rx="4" fill="#eb6834"/>
<text x="626.6" y="411.0" font-family="-apple-system, 'Segoe UI', Helvetica, Arial, sans-serif" font-size="12" font-weight="600" text-anchor="middle" fill="#0b0b0b">12</text>
<path d="M636.0,392 H642.0 Q646.0,392 646.0,396 V402 Z" fill="#0b0b0b"/>
<rect x="652.0" y="392" width="84.0" height="30" rx="4" fill="#2a78d6"/>
<text x="694.0" y="411.0" font-family="-apple-system, 'Segoe UI', Helvetica, Arial, sans-serif" font-size="12" font-weight="600" text-anchor="middle" fill="#ffffff">Postpass</text>
<rect x="24" y="430" width="712" height="8" rx="4" fill="#e1e0d9"/>
<path d="M24,430 H516.3 Q520.3,430 520.3,434 V434 Q520.3,438 516.3,438 H24 Z" fill="#eb6834"/>
<text x="24.0" y="456.0" font-family="-apple-system, 'Segoe UI', Helvetica, Arial, sans-serif" font-size="12" text-anchor="start" fill="#52514e">Passes 1, 5, 10 and 12: the smallest weights are folded into their neighbours, so fewer products are computed.</text>
<text x="24.0" y="472.0" font-family="-apple-system, 'Segoe UI', Helvetica, Arial, sans-serif" font-size="12" text-anchor="start" fill="#52514e">Passes 2, 4, 7, 8 and 9 (and the four above): simpler rounding between layers.</text>
<line x1="24" y1="496" x2="736" y2="496" stroke="#e1e0d9" stroke-width="1"/>
<text x="24.0" y="518.0" font-family="-apple-system, 'Segoe UI', Helvetica, Arial, sans-serif" font-size="14" font-weight="600" text-anchor="start" fill="#0b0b0b">Lossy build</text>
<text x="115.6" y="518.0" font-family="-apple-system, 'Segoe UI', Helvetica, Arial, sans-serif" font-size="12" text-anchor="start" fill="#52514e">a skipped frame (every other frame)</text>
<text x="736.0" y="518.0" font-family="-apple-system, 'Segoe UI', Helvetica, Arial, sans-serif" font-size="14" font-weight="600" text-anchor="end" fill="#0b0b0b">1.19 ms</text>
<rect x="24.0" y="530" width="84.0" height="30" rx="4" fill="#eb6834"/>
<text x="66.0" y="549.0" font-family="-apple-system, 'Segoe UI', Helvetica, Arial, sans-serif" font-size="12" font-weight="600" text-anchor="middle" fill="#0b0b0b">Prepass</text>
<path d="M98.0,530 H104.0 Q108.0,530 108.0,534 V540 Z" fill="#0b0b0b"/>
<rect x="114.0" y="530" width="38.8" height="30" rx="4" fill="#fcfcfb" stroke="#898781" stroke-width="1" stroke-dasharray="3 3"/>
<text x="133.4" y="549.0" font-family="-apple-system, 'Segoe UI', Helvetica, Arial, sans-serif" font-size="12" text-anchor="middle" fill="#898781">1</text>
<line x1="120.0" y1="553" x2="146.8" y2="537" stroke="#898781" stroke-width="1"/>
<rect x="158.8" y="530" width="38.8" height="30" rx="4" fill="#fcfcfb" stroke="#898781" stroke-width="1" stroke-dasharray="3 3"/>
<text x="178.2" y="549.0" font-family="-apple-system, 'Segoe UI', Helvetica, Arial, sans-serif" font-size="12" text-anchor="middle" fill="#898781">2</text>
<line x1="164.8" y1="553" x2="191.7" y2="537" stroke="#898781" stroke-width="1"/>
<rect x="203.7" y="530" width="38.8" height="30" rx="4" fill="#fcfcfb" stroke="#898781" stroke-width="1" stroke-dasharray="3 3"/>
<text x="223.1" y="549.0" font-family="-apple-system, 'Segoe UI', Helvetica, Arial, sans-serif" font-size="12" text-anchor="middle" fill="#898781">3</text>
<line x1="209.7" y1="553" x2="236.5" y2="537" stroke="#898781" stroke-width="1"/>
<rect x="248.5" y="530" width="38.8" height="30" rx="4" fill="#fcfcfb" stroke="#898781" stroke-width="1" stroke-dasharray="3 3"/>
<text x="267.9" y="549.0" font-family="-apple-system, 'Segoe UI', Helvetica, Arial, sans-serif" font-size="12" text-anchor="middle" fill="#898781">4</text>
<line x1="254.5" y1="553" x2="281.3" y2="537" stroke="#898781" stroke-width="1"/>
<rect x="293.3" y="530" width="38.8" height="30" rx="4" fill="#fcfcfb" stroke="#898781" stroke-width="1" stroke-dasharray="3 3"/>
<text x="312.8" y="549.0" font-family="-apple-system, 'Segoe UI', Helvetica, Arial, sans-serif" font-size="12" text-anchor="middle" fill="#898781">5</text>
<line x1="299.3" y1="553" x2="326.2" y2="537" stroke="#898781" stroke-width="1"/>
<rect x="338.2" y="530" width="38.8" height="30" rx="4" fill="#fcfcfb" stroke="#898781" stroke-width="1" stroke-dasharray="3 3"/>
<text x="357.6" y="549.0" font-family="-apple-system, 'Segoe UI', Helvetica, Arial, sans-serif" font-size="12" text-anchor="middle" fill="#898781">6</text>
<line x1="344.2" y1="553" x2="371.0" y2="537" stroke="#898781" stroke-width="1"/>
<rect x="383.0" y="530" width="38.8" height="30" rx="4" fill="#fcfcfb" stroke="#898781" stroke-width="1" stroke-dasharray="3 3"/>
<text x="402.4" y="549.0" font-family="-apple-system, 'Segoe UI', Helvetica, Arial, sans-serif" font-size="12" text-anchor="middle" fill="#898781">7</text>
<line x1="389.0" y1="553" x2="415.8" y2="537" stroke="#898781" stroke-width="1"/>
<rect x="427.8" y="530" width="38.8" height="30" rx="4" fill="#fcfcfb" stroke="#898781" stroke-width="1" stroke-dasharray="3 3"/>
<text x="447.2" y="549.0" font-family="-apple-system, 'Segoe UI', Helvetica, Arial, sans-serif" font-size="12" text-anchor="middle" fill="#898781">8</text>
<line x1="433.8" y1="553" x2="460.7" y2="537" stroke="#898781" stroke-width="1"/>
<rect x="472.7" y="530" width="38.8" height="30" rx="4" fill="#fcfcfb" stroke="#898781" stroke-width="1" stroke-dasharray="3 3"/>
<text x="492.1" y="549.0" font-family="-apple-system, 'Segoe UI', Helvetica, Arial, sans-serif" font-size="12" text-anchor="middle" fill="#898781">9</text>
<line x1="478.7" y1="553" x2="505.5" y2="537" stroke="#898781" stroke-width="1"/>
<rect x="517.5" y="530" width="38.8" height="30" rx="4" fill="#fcfcfb" stroke="#898781" stroke-width="1" stroke-dasharray="3 3"/>
<text x="536.9" y="549.0" font-family="-apple-system, 'Segoe UI', Helvetica, Arial, sans-serif" font-size="12" text-anchor="middle" fill="#898781">10</text>
<line x1="523.5" y1="553" x2="550.3" y2="537" stroke="#898781" stroke-width="1"/>
<rect x="562.3" y="530" width="38.8" height="30" rx="4" fill="#fcfcfb" stroke="#898781" stroke-width="1" stroke-dasharray="3 3"/>
<text x="581.8" y="549.0" font-family="-apple-system, 'Segoe UI', Helvetica, Arial, sans-serif" font-size="12" text-anchor="middle" fill="#898781">11</text>
<line x1="568.3" y1="553" x2="595.2" y2="537" stroke="#898781" stroke-width="1"/>
<rect x="607.2" y="530" width="38.8" height="30" rx="4" fill="#fcfcfb" stroke="#898781" stroke-width="1" stroke-dasharray="3 3"/>
<text x="626.6" y="549.0" font-family="-apple-system, 'Segoe UI', Helvetica, Arial, sans-serif" font-size="12" text-anchor="middle" fill="#898781">12</text>
<line x1="613.2" y1="553" x2="640.0" y2="537" stroke="#898781" stroke-width="1"/>
<rect x="652.0" y="530" width="84.0" height="30" rx="4" fill="#eb6834"/>
<text x="694.0" y="549.0" font-family="-apple-system, 'Segoe UI', Helvetica, Arial, sans-serif" font-size="12" font-weight="600" text-anchor="middle" fill="#0b0b0b">Postpass</text>
<path d="M726.0,530 H732.0 Q736.0,530 736.0,534 V540 Z" fill="#0b0b0b"/>
<rect x="24" y="568" width="712" height="8" rx="4" fill="#e1e0d9"/>
<path d="M24,568 H223.7 Q227.7,568 227.7,572 V572 Q227.7,576 223.7,576 H24 Z" fill="#eb6834"/>
<text x="24.0" y="594.0" font-family="-apple-system, 'Segoe UI', Helvetica, Arial, sans-serif" font-size="12" text-anchor="start" fill="#52514e">The model does not run, and its last result follows the picture's motion. The picture is almost entirely the</text>
<text x="24.0" y="610.0" font-family="-apple-system, 'Segoe UI', Helvetica, Arial, sans-serif" font-size="12" text-anchor="start" fill="#52514e">previous one moved along with the scene; the new frame counts for very little, except where the model had asked</text>
<text x="24.0" y="626.0" font-family="-apple-system, 'Segoe UI', Helvetica, Arial, sans-serif" font-size="12" text-anchor="start" fill="#52514e">for it. Four repairs: the history limited to the new frame's colours around the pixel, less weight where the nearest</text>
<text x="24.0" y="642.0" font-family="-apple-system, 'Segoe UI', Helvetica, Arial, sans-serif" font-size="12" text-anchor="start" fill="#52514e">sample moved away, and the new frame alone where the history is nearly black or was hidden behind a moving object.</text>
<text x="24.0" y="658.0" font-family="-apple-system, 'Segoe UI', Helvetica, Arial, sans-serif" font-size="12" text-anchor="start" fill="#52514e">Where the picture is at rest, nothing is taken from the new frame.</text>
<line x1="24" y1="682" x2="736" y2="682" stroke="#e1e0d9" stroke-width="1"/>
<text x="24.0" y="708.0" font-family="-apple-system, 'Segoe UI', Helvetica, Arial, sans-serif" font-size="14" font-weight="600" text-anchor="start" fill="#0b0b0b">Upscaler time, average</text>
<text x="24.0" y="726.0" font-family="-apple-system, 'Segoe UI', Helvetica, Arial, sans-serif" font-size="11" text-anchor="start" fill="#898781">Shadow of the Tomb Raider, 4K Balanced, RX 7800 XT</text>
<text x="98.0" y="754.0" font-family="-apple-system, 'Segoe UI', Helvetica, Arial, sans-serif" font-size="12" text-anchor="end" fill="#0b0b0b">AMD's</text>
<path d="M108,742 H254.0 Q258.0,742 258.0,746 V754 Q258.0,758 254.0,758 H108 Z" fill="#c3c2b7"/>
<text x="266.0" y="754.0" font-family="-apple-system, 'Segoe UI', Helvetica, Arial, sans-serif" font-size="12" text-anchor="start" fill="#52514e">4.16 ms  ·  97 FPS</text>
<text x="98.0" y="780.0" font-family="-apple-system, 'Segoe UI', Helvetica, Arial, sans-serif" font-size="12" text-anchor="end" fill="#0b0b0b">Exact</text>
<path d="M108,768 H214.0 Q218.0,768 218.0,772 V780 Q218.0,784 214.0,784 H108 Z" fill="#2a78d6"/>
<text x="226.0" y="780.0" font-family="-apple-system, 'Segoe UI', Helvetica, Arial, sans-serif" font-size="12" text-anchor="start" fill="#52514e">3.05 ms  ·  109 FPS  ·  27% less</text>
<text x="98.0" y="806.0" font-family="-apple-system, 'Segoe UI', Helvetica, Arial, sans-serif" font-size="12" text-anchor="end" fill="#0b0b0b">Lossy</text>
<path d="M108,794 H178.6 Q182.6,794 182.6,798 V806 Q182.6,810 178.6,810 H108 Z" fill="#eb6834"/>
<text x="190.6" y="806.0" font-family="-apple-system, 'Segoe UI', Helvetica, Arial, sans-serif" font-size="12" text-anchor="start" fill="#52514e">2.07 ms  ·  122 FPS  ·  50% less</text>
<text x="452.0" y="708.0" font-family="-apple-system, 'Segoe UI', Helvetica, Arial, sans-serif" font-size="14" font-weight="600" text-anchor="start" fill="#0b0b0b">What the lossy build costs</text>
<text x="452.0" y="726.0" font-family="-apple-system, 'Segoe UI', Helvetica, Arial, sans-serif" font-size="11" text-anchor="start" fill="#898781">Test scene, 4K Balanced. Exact files = AMD's.</text>
<text x="648.0" y="748.0" font-family="-apple-system, 'Segoe UI', Helvetica, Arial, sans-serif" font-size="11" text-anchor="end" fill="#898781">AMD's</text>
<text x="736.0" y="748.0" font-family="-apple-system, 'Segoe UI', Helvetica, Arial, sans-serif" font-size="11" text-anchor="end" fill="#898781">Lossy</text>
<text x="452.0" y="768.0" font-family="-apple-system, 'Segoe UI', Helvetica, Arial, sans-serif" font-size="12" text-anchor="start" fill="#0b0b0b">Still picture</text>
<text x="648.0" y="768.0" font-family="-apple-system, 'Segoe UI', Helvetica, Arial, sans-serif" font-size="12" text-anchor="end" fill="#52514e">44.31 dB</text>
<text x="736.0" y="768.0" font-family="-apple-system, 'Segoe UI', Helvetica, Arial, sans-serif" font-size="12" font-weight="600" text-anchor="end" fill="#0b0b0b">43.60 dB</text>
<text x="452.0" y="790.0" font-family="-apple-system, 'Segoe UI', Helvetica, Arial, sans-serif" font-size="12" text-anchor="start" fill="#0b0b0b">Flicker at rest, fine detail</text>
<text x="648.0" y="790.0" font-family="-apple-system, 'Segoe UI', Helvetica, Arial, sans-serif" font-size="12" text-anchor="end" fill="#52514e">0.110</text>
<text x="736.0" y="790.0" font-family="-apple-system, 'Segoe UI', Helvetica, Arial, sans-serif" font-size="12" font-weight="600" text-anchor="end" fill="#0b0b0b">0.109</text>
<text x="452.0" y="812.0" font-family="-apple-system, 'Segoe UI', Helvetica, Arial, sans-serif" font-size="12" text-anchor="start" fill="#0b0b0b">Areas just uncovered</text>
<text x="648.0" y="812.0" font-family="-apple-system, 'Segoe UI', Helvetica, Arial, sans-serif" font-size="12" text-anchor="end" fill="#52514e">34.48 dB</text>
<text x="736.0" y="812.0" font-family="-apple-system, 'Segoe UI', Helvetica, Arial, sans-serif" font-size="12" font-weight="600" text-anchor="end" fill="#0b0b0b">34.21 dB</text>
</svg>
